<svg width="185" height="74" viewBox="0 0 185 74" fill="none" xmlns="http://www.w3.org/2000/svg">
<path opacity="0.9" d="M41.8362 12.5512L33.2323 0H6.29823C6.29823 0 0.741033 1.42842 0.419678 6.37119V12.6508L41.8362 12.5512Z" fill="#242E35"/>
<path opacity="0.9" d="M41.8745 18.9599H15.597L24.6283 32.4569H28.6989V38.884H13.5952V15.7464H0.419678V46.3185C0.419678 46.3185 1.38149 51.7382 6.72595 52.0595H36.1181C36.1181 52.0595 41.5531 51.1276 41.8745 46.1578V18.9599Z" fill="#242E35"/>
<path opacity="0.9" d="M80.444 48.1387L59.8705 21.6816V52.0596H47.3376V7.84111C47.3376 7.84111 47.8206 0.520322 55.6765 0.146265C55.6765 0.146265 59.1089 0.0395734 62.2084 3.35307L83.3294 30.8733V0.321402H96.3996L96.1325 45.0161C96.1325 45.0161 95.8719 51.1174 88.4435 52.1335C87.4151 52.2742 84.3876 53.0519 80.444 48.1387Z" fill="#1065A2"/>
<path opacity="0.9" d="M101.647 23.1374H140.531V16.1775C140.531 16.1775 139.9 11.2473 134.716 11.2473H106.66C106.66 11.2473 101.646 11.1544 101.646 16.4449V23.1374H101.647Z" fill="#1065A2"/>
<path opacity="0.9" d="M140.531 48.8831V26.3513H127.998V41.7763H114.18V26.3513H101.647V48.8831C101.647 48.8831 102.171 53.6664 107.088 54.3092H135.197C135.197 54.3092 140.209 53.2654 140.531 48.8831Z" fill="#1065A2"/>
<path opacity="0.9" d="M145.351 48.8829V26.6724H157.884V41.8288L171.381 41.8295V23.7802H145.351V15.8569C145.351 15.8569 146.473 11.2474 151.389 11.2474H184.556V67.16C184.556 67.16 183.881 72.3048 179.285 72.9476H152.512L143.402 59.9012L171.381 59.7858V54.4941C171.381 54.4941 156.494 54.4269 150.991 54.4941C149.906 54.5079 145.351 52.9965 145.351 48.8829Z" fill="#1065A2"/>
<g opacity="0.9">
<path opacity="0.9" d="M1.43636 61.8246H5.17468L6.61628 67.422L8.04791 61.8246H11.784V71.0241H9.45609V64.0083L7.66229 71.0241H5.55484L3.76425 64.0083V71.0241H1.43604V61.8246H1.43636Z" fill="#242E35"/>
<path opacity="0.9" d="M20.8265 68.3268H15.7061C15.752 68.7365 15.8629 69.0418 16.0387 69.2426C16.2855 69.5312 16.6075 69.6758 17.005 69.6758C17.256 69.6758 17.4944 69.6131 17.7203 69.4875C17.8582 69.4084 18.007 69.2677 18.1657 69.0668L20.6819 69.2992C20.2973 69.9682 19.8326 70.4483 19.2889 70.7395C18.7451 71.03 17.9649 71.1749 16.9481 71.1749C16.0653 71.1749 15.3712 71.0506 14.8648 70.8022C14.3586 70.5531 13.9393 70.1575 13.6067 69.616C13.2741 69.0746 13.1079 68.4373 13.1079 67.7049C13.1079 66.6638 13.4415 65.8208 14.1086 65.1768C14.7757 64.5322 15.6974 64.2102 16.8729 64.2102C17.8267 64.2102 18.5796 64.3545 19.1317 64.6434C19.6841 64.932 20.1045 65.3501 20.393 65.898C20.6816 66.4459 20.8262 67.1596 20.8262 68.0382V68.3268H20.8265ZM18.2287 67.1027C18.1782 66.6088 18.0459 66.2553 17.8302 66.0419C17.6146 65.8285 17.3315 65.7219 16.9799 65.7219C16.574 65.7219 16.2501 65.8832 16.0075 66.2052C15.8526 66.4067 15.7543 66.7055 15.7125 67.1027H18.2287Z" fill="#242E35"/>
<path opacity="0.9" d="M29.0157 61.8258V71.0252H26.6249V70.04C26.29 70.4587 25.9847 70.7412 25.7087 70.8874C25.3407 71.0795 24.9307 71.1753 24.4789 71.1753C23.571 71.1753 22.8779 70.8308 22.3987 70.1402C21.9196 69.45 21.6802 68.6112 21.6802 67.624C21.6802 66.5192 21.9447 65.6747 22.4739 65.0888C23.0029 64.5033 23.6755 64.2103 24.4914 64.2103C24.8889 64.2103 25.2495 64.2774 25.574 64.4111C25.8983 64.5448 26.1859 64.7456 26.4369 65.0136V61.8258H29.0157ZM26.4555 67.6741C26.4555 67.1513 26.3446 66.7609 26.1229 66.5035C25.9012 66.246 25.621 66.1175 25.2819 66.1175C24.985 66.1175 24.7359 66.2412 24.5351 66.4877C24.3342 66.7345 24.2337 67.1494 24.2337 67.7304C24.2337 68.2738 24.3371 68.6726 24.5444 68.9255C24.7517 69.179 25.0075 69.3053 25.3131 69.3053C25.6396 69.3053 25.9115 69.1781 26.1287 68.9226C26.3466 68.6678 26.4555 68.2516 26.4555 67.6741Z" fill="#242E35"/>
<path opacity="0.9" d="M30.6658 61.8258H33.2199V63.5637H30.6658V61.8258ZM30.6658 64.3607H33.2199V71.0249H30.6658V64.3607Z" fill="#242E35"/>
<path opacity="0.9" d="M37.1795 66.5192L34.7385 66.2618C34.8304 65.835 34.9635 65.4992 35.137 65.2543C35.3109 65.0094 35.5606 64.7973 35.8867 64.618C36.121 64.4882 36.443 64.3876 36.853 64.3166C37.2628 64.2449 37.7066 64.2099 38.1835 64.2099C38.9493 64.2099 39.564 64.2533 40.0284 64.3384C40.4927 64.4246 40.8796 64.6032 41.1891 64.8751C41.4067 65.0634 41.5779 65.3301 41.7036 65.6753C41.8292 66.0198 41.8919 66.3495 41.8919 66.6631V69.6061C41.8919 69.9201 41.9118 70.1659 41.9517 70.3436C41.9915 70.5213 42.0783 70.7485 42.2123 71.0246H39.8153C39.7189 70.8526 39.6562 70.7222 39.627 70.6322C39.5977 70.5419 39.5682 70.4005 39.5393 70.2086C39.2047 70.5306 38.8718 70.761 38.5418 70.8989C38.0899 71.0827 37.5648 71.1743 36.9668 71.1743C36.1718 71.1743 35.5683 70.9905 35.1563 70.6225C34.7443 70.2546 34.5383 69.8002 34.5383 69.2606C34.5383 68.7548 34.6868 68.338 34.9837 68.0115C35.2807 67.6857 35.8289 67.4427 36.6281 67.284C37.5857 67.0918 38.2072 66.9562 38.4916 66.8791C38.776 66.8019 39.0775 66.7001 39.3953 66.5748C39.3953 66.2608 39.3304 66.0413 39.2009 65.9157C39.0714 65.7906 38.8432 65.728 38.517 65.728C38.0986 65.728 37.785 65.7945 37.5758 65.9282C37.4119 66.0339 37.2801 66.2306 37.1795 66.5192ZM39.3946 67.8624C39.0434 67.9881 38.6774 68.0983 38.2966 68.195C37.7779 68.3332 37.4495 68.4688 37.3113 68.6031C37.1693 68.7407 37.0979 68.8975 37.0979 69.0733C37.0979 69.2741 37.168 69.4387 37.3081 69.5659C37.4482 69.6938 37.6542 69.7575 37.9261 69.7575C38.2105 69.7575 38.4752 69.6884 38.7198 69.5502C38.9647 69.412 39.1382 69.2439 39.2407 69.0457C39.3432 68.8467 39.3946 68.588 39.3946 68.2705V67.8624Z" fill="#242E35"/>
<path opacity="0.9" d="M46.9749 64.3607H49.6697L51.0442 68.797L52.3206 64.3607H54.8375L52.1933 71.4812C51.8922 72.2933 51.585 72.8412 51.2711 73.1263C50.8282 73.5286 50.1527 73.7294 49.2452 73.7294C48.8773 73.7294 48.3085 73.6793 47.5392 73.5787L47.3386 71.7962C47.7066 71.9135 48.116 71.972 48.5675 71.972C48.8683 71.972 49.1119 71.9029 49.2976 71.7647C49.4834 71.6265 49.6411 71.3794 49.771 71.0233L46.9749 64.3607Z" fill="#242E35"/>
<path opacity="0.9" d="M59.3684 61.8258H68.0093V64.0971H65.1104V71.0252H62.2677V64.0971H59.3684V61.8258Z" fill="#242E35"/>
<path opacity="0.9" d="M75.7527 68.3268H70.6322C70.6781 68.7365 70.789 69.0418 70.9651 69.2426C71.2119 69.5312 71.5339 69.6758 71.9314 69.6758C72.1824 69.6758 72.4208 69.6131 72.6468 69.4875C72.7849 69.4084 72.9334 69.2677 73.0925 69.0668L75.6087 69.2992C75.2237 69.9682 74.7593 70.4483 74.2156 70.7395C73.6719 71.03 72.8913 71.1749 71.8749 71.1749C70.9921 71.1749 70.2976 71.0506 69.7915 70.8022C69.2854 70.5531 68.866 70.1575 68.5334 69.616C68.2008 69.0742 68.0347 68.4373 68.0347 67.7049C68.0347 66.6638 68.3682 65.8208 69.0354 65.1768C69.7025 64.5322 70.6238 64.2102 71.7997 64.2102C72.7534 64.2102 73.5064 64.3545 74.0585 64.6434C74.6109 64.932 75.0312 65.3501 75.3201 65.898C75.6087 66.4459 75.753 67.1596 75.753 68.0382V68.3268H75.7527ZM73.1548 67.1027C73.1044 66.6088 72.9716 66.2553 72.7563 66.0419C72.5407 65.8285 72.2573 65.7219 71.906 65.7219C71.5002 65.7219 71.1759 65.8832 70.9333 66.2052C70.7787 66.4067 70.6801 66.7055 70.6386 67.1027H73.1548Z" fill="#242E35"/>
<path opacity="0.9" d="M81.8959 68.4148L84.3244 68.6902C84.1904 69.1967 83.9709 69.6347 83.6656 70.0052C83.36 70.3754 82.9699 70.663 82.4953 70.8684C82.0206 71.0731 81.4171 71.1753 80.6851 71.1753C79.9781 71.1753 79.3894 71.11 78.9186 70.9783C78.4478 70.8465 78.0429 70.6338 77.7042 70.3388C77.3652 70.0444 77.0997 69.6986 76.9072 69.3011C76.7147 68.9039 76.6187 68.3772 76.6187 67.7213C76.6187 67.0359 76.7356 66.4648 76.9699 66.0098C77.1415 65.6753 77.3758 65.3751 77.6727 65.1097C77.9696 64.8449 78.2752 64.6472 78.5889 64.5177C79.0867 64.3124 79.7245 64.2102 80.5029 64.2102C81.5907 64.2102 82.4197 64.4046 82.9911 64.7938C83.5618 65.1829 83.9626 65.7514 84.1927 66.5005L81.7893 66.8206C81.7137 66.5362 81.5768 66.3215 81.3782 66.1772C81.1796 66.0329 80.9129 65.9606 80.5781 65.9606C80.1555 65.9606 79.8136 66.1126 79.5523 66.415C79.2907 66.7181 79.1599 67.1757 79.1599 67.7901C79.1599 68.3367 79.2894 68.7522 79.5488 69.036C79.8081 69.3204 80.1388 69.4621 80.5405 69.4621C80.875 69.4621 81.1565 69.3766 81.384 69.2047C81.6125 69.0334 81.7828 68.7699 81.8959 68.4148Z" fill="#242E35"/>
<path opacity="0.9" d="M85.4979 64.3606H87.8762V65.4458C88.2317 65.0027 88.5916 64.6858 88.9553 64.4956C89.3194 64.3053 89.7629 64.2099 90.2858 64.2099C90.9927 64.2099 91.5458 64.4201 91.9455 64.8401C92.345 65.2614 92.5449 65.9102 92.5449 66.7888V71.0249H89.9782V67.3601C89.9782 66.9414 89.9008 66.6458 89.7459 66.4719C89.591 66.2987 89.3734 66.2113 89.0935 66.2113C88.7837 66.2113 88.5328 66.3286 88.3403 66.5629C88.1478 66.7971 88.0517 67.2181 88.0517 67.8245V71.0249H85.4976V64.3606H85.4979Z" fill="#242E35"/>
<path opacity="0.9" d="M93.7559 67.7117C93.7559 66.6949 94.0987 65.8571 94.7848 65.1987C95.4709 64.5396 96.3974 64.2102 97.5649 64.2102C98.8991 64.2102 99.9072 64.5968 100.589 65.3706C101.137 65.9944 101.412 66.7621 101.412 67.6741C101.412 68.6989 101.072 69.5389 100.392 70.1935C99.7119 70.8481 98.7716 71.1753 97.571 71.1753C96.5002 71.1753 95.6342 70.9034 94.9732 70.36C94.1617 69.6864 93.7559 68.8033 93.7559 67.7117ZM96.3161 67.7049C96.3161 68.2994 96.4363 68.7387 96.677 69.0231C96.9173 69.3082 97.2194 69.4499 97.5835 69.4499C97.9518 69.4499 98.2542 69.3098 98.4904 69.0292C98.7266 68.7493 98.8448 68.2994 98.8448 67.6805C98.8448 67.103 98.7259 66.6731 98.4875 66.3906C98.249 66.1081 97.954 65.9671 97.6028 65.9671C97.23 65.9671 96.9225 66.1107 96.6802 66.397C96.4376 66.6837 96.3161 67.1198 96.3161 67.7049Z" fill="#242E35"/>
<path opacity="0.9" d="M102.729 61.8258H105.289V71.0252H102.729V61.8258Z" fill="#242E35"/>
<path opacity="0.9" d="M106.607 67.7117C106.607 66.6949 106.95 65.8571 107.636 65.1987C108.322 64.5396 109.249 64.2102 110.416 64.2102C111.75 64.2102 112.758 64.5968 113.441 65.3706C113.989 65.9944 114.263 66.7621 114.263 67.6741C114.263 68.6989 113.923 69.5389 113.243 70.1935C112.563 70.8481 111.623 71.1753 110.422 71.1753C109.351 71.1753 108.485 70.9034 107.825 70.36C107.013 69.6864 106.607 68.8033 106.607 67.7117ZM109.167 67.7049C109.167 68.2994 109.288 68.7387 109.528 69.0231C109.769 69.3082 110.071 69.4499 110.435 69.4499C110.803 69.4499 111.105 69.3098 111.342 69.0292C111.578 68.7493 111.696 68.2994 111.696 67.6805C111.696 67.103 111.577 66.6731 111.338 66.3906C111.1 66.1081 110.805 65.9671 110.454 65.9671C110.082 65.9671 109.774 66.1107 109.531 66.397C109.289 66.6837 109.167 67.1198 109.167 67.7049Z" fill="#242E35"/>
<path opacity="0.9" d="M120.131 64.3606H122.521V70.6546L122.528 70.9496C122.528 71.3677 122.439 71.7662 122.261 72.1448C122.083 72.524 121.847 72.8302 121.552 73.0642C121.257 73.2984 120.883 73.4678 120.429 73.5719C119.975 73.6767 119.455 73.7294 118.869 73.7294C117.531 73.7294 116.611 73.5285 116.111 73.1268C115.611 72.7251 115.361 72.1878 115.361 71.5143C115.361 71.4301 115.366 71.3173 115.374 71.1746L117.853 71.4571C117.916 71.6875 118.012 71.8462 118.141 71.9339C118.329 72.0638 118.566 72.129 118.85 72.129C119.219 72.129 119.493 72.0304 119.675 71.8334C119.857 71.637 119.948 71.2935 119.948 70.8047V69.794C119.697 70.0916 119.446 70.3069 119.195 70.4406C118.802 70.6495 118.378 70.7546 117.921 70.7546C117.031 70.7546 116.311 70.3654 115.763 69.5871C115.374 69.0347 115.179 68.3049 115.179 67.3974C115.179 66.3597 115.43 65.5692 115.932 65.0255C116.434 64.4814 117.091 64.2095 117.903 64.2095C118.421 64.2095 118.849 64.2973 119.186 64.473C119.523 64.6488 119.838 64.9393 120.13 65.3449V64.3606H120.131ZM117.727 67.5924C117.727 68.0738 117.829 68.4302 118.035 68.6619C118.239 68.8942 118.509 69.0103 118.844 69.0103C119.162 69.0103 119.428 68.8904 119.644 68.65C119.86 68.409 119.967 68.0462 119.967 67.5609C119.967 67.0757 119.854 66.7042 119.628 66.4468C119.402 66.1894 119.126 66.0609 118.8 66.0609C118.474 66.0609 118.213 66.1794 118.019 66.4156C117.825 66.6522 117.727 67.0445 117.727 67.5924Z" fill="#242E35"/>
<path opacity="0.9" d="M124.159 64.3606H126.713V71.0249H124.159V64.3606ZM125.363 61.6686H127.56L125.533 63.5447H124.309L125.363 61.6686Z" fill="#242E35"/>
<path opacity="0.9" d="M130.672 66.5192L128.231 66.2618C128.323 65.835 128.456 65.4992 128.63 65.2543C128.803 65.0094 129.053 64.7973 129.38 64.618C129.614 64.4882 129.936 64.3876 130.346 64.3166C130.756 64.2449 131.199 64.2099 131.676 64.2099C132.442 64.2099 133.057 64.2533 133.521 64.3384C133.986 64.4246 134.372 64.6032 134.682 64.8751C134.899 65.0634 135.071 65.3301 135.197 65.6753C135.322 66.0198 135.385 66.3495 135.385 66.6631V69.6061C135.385 69.9201 135.405 70.1659 135.445 70.3436C135.484 70.5213 135.571 70.7485 135.705 71.0246H133.308C133.212 70.8526 133.149 70.7222 133.12 70.6322C133.091 70.5419 133.061 70.4005 133.032 70.2086C132.698 70.5306 132.365 70.761 132.035 70.8989C131.583 71.0827 131.058 71.1743 130.46 71.1743C129.665 71.1743 129.061 70.9905 128.649 70.6225C128.237 70.2546 128.031 69.8002 128.031 69.2606C128.031 68.7548 128.18 68.338 128.477 68.0115C128.774 67.6857 129.321 67.4427 130.121 67.284C131.079 67.0918 131.7 66.9562 131.984 66.8791C132.269 66.8019 132.57 66.7001 132.888 66.5748C132.888 66.2608 132.823 66.0413 132.693 65.9157C132.564 65.7906 132.336 65.728 132.01 65.728C131.591 65.728 131.277 65.7945 131.068 65.9282C130.905 66.0339 130.773 66.2306 130.672 66.5192ZM132.888 67.8624C132.536 67.9881 132.17 68.0983 131.79 68.195C131.271 68.3332 130.942 68.4688 130.805 68.6031C130.662 68.7407 130.591 68.8975 130.591 69.0733C130.591 69.2741 130.661 69.4387 130.801 69.5659C130.941 69.6938 131.147 69.7575 131.42 69.7575C131.704 69.7575 131.968 69.6884 132.213 69.5502C132.458 69.412 132.631 69.2439 132.734 69.0457C132.836 68.8467 132.888 68.588 132.888 68.2705V67.8624H132.888Z" fill="#242E35"/>
</g>
<path opacity="0.9" d="M137.459 61.4041C137.459 61.0753 137.535 60.7701 137.686 60.4885C137.839 60.2069 138.05 59.9856 138.319 59.8245C138.589 59.6617 138.88 59.5803 139.193 59.5803C139.505 59.5803 139.796 59.6617 140.064 59.8245C140.333 59.9856 140.543 60.2069 140.694 60.4885C140.847 60.7701 140.924 61.0753 140.924 61.4041C140.924 61.7247 140.85 62.025 140.704 62.3049C140.557 62.5849 140.349 62.8103 140.079 62.9812C139.81 63.1505 139.515 63.2351 139.193 63.2351C138.872 63.2351 138.577 63.1513 138.306 62.9836C138.038 62.8144 137.83 62.5898 137.681 62.3098C137.533 62.0299 137.459 61.7279 137.459 61.4041ZM137.74 61.4041C137.74 61.684 137.805 61.9436 137.935 62.1829C138.066 62.4205 138.242 62.6069 138.465 62.7419C138.69 62.877 138.932 62.9446 139.193 62.9446C139.455 62.9446 139.698 62.8762 139.923 62.7395C140.147 62.6012 140.323 62.414 140.45 62.178C140.579 61.942 140.643 61.684 140.643 61.4041C140.643 61.1257 140.579 60.8694 140.45 60.635C140.323 60.399 140.147 60.2135 139.923 60.0784C139.698 59.9417 139.455 59.8733 139.193 59.8733C138.932 59.8733 138.69 59.9408 138.465 60.0759C138.24 60.2094 138.063 60.3949 137.933 60.6326C137.804 60.8702 137.74 61.1274 137.74 61.4041ZM138.834 61.5872V62.4124H138.49V60.3396H139.163C139.412 60.3396 139.605 60.3933 139.742 60.5007C139.88 60.6065 139.949 60.7611 139.949 60.9646C139.949 61.1648 139.845 61.3178 139.637 61.4236C139.836 61.505 139.936 61.671 139.937 61.9216V62.0706C139.937 62.2105 139.951 62.3114 139.979 62.3733V62.4124H139.625C139.602 62.3538 139.591 62.2496 139.591 62.0999C139.591 61.9485 139.588 61.859 139.583 61.8313C139.557 61.675 139.451 61.5937 139.263 61.5872H138.834ZM138.834 61.2747H139.215C139.332 61.2714 139.426 61.2429 139.498 61.1892C139.569 61.1355 139.605 61.0647 139.605 60.9768C139.605 60.858 139.573 60.7742 139.51 60.7253C139.447 60.6749 139.333 60.6497 139.171 60.6497H138.834V61.2747Z" fill="#242E35"/>
</svg>
